<svg width="464" height="464" viewBox="0 0 464 464" fill="none" xmlns="http://www.w3.org/2000/svg">
<path d="M5 232C5 106.632 106.632 5 232 5C357.368 5 459 106.632 459 232C459 357.368 357.368 459 232 459C106.632 459 5 357.368 5 232Z" fill="#1A1AFF" stroke="#1A1AFF" stroke-width="10"/>
<path d="M227.5 324.5C227.5 347.696 208.696 366.5 185.5 366.5C162.304 366.5 143.5 347.696 143.5 324.5C143.5 301.305 162.304 282.5 185.5 282.5H227.5V324.5Z" fill="white" stroke="#1A1AFF" stroke-width="9"/>
<path d="M143.5 232C143.5 209.126 162.258 190.5 185.5 190.5H227.5V273.5H185.5C162.258 273.5 143.5 254.873 143.5 232Z" fill="white" stroke="#1A1AFF" stroke-width="9"/>
<path d="M143.5 139.5C143.5 116.304 162.304 97.5 185.5 97.5H227.5V181.5H185.5C162.304 181.5 143.5 162.695 143.5 139.5Z" fill="white" stroke="#1A1AFF" stroke-width="9"/>
<path d="M236.5 97.5H278.5C301.696 97.5 320.5 116.304 320.5 139.5C320.5 162.695 301.696 181.5 278.5 181.5H236.5V97.5Z" fill="white" stroke="#1A1AFF" stroke-width="9"/>
<path d="M320.5 232C320.5 254.873 301.742 273.5 278.5 273.5C255.258 273.5 236.5 254.873 236.5 232C236.5 209.126 255.258 190.5 278.5 190.5C301.742 190.5 320.5 209.126 320.5 232Z" fill="white" stroke="#1A1AFF" stroke-width="9"/>
</svg>
