<svg width="390" height="390" viewBox="0 0 390 390" fill="none" xmlns="http://www.w3.org/2000/svg">
<path d="M4.88281 4.88281H385.117V385.117H4.88281V4.88281Z" fill="#1A1AFF" stroke="white" stroke-width="9.76562"/>
<path d="M102.546 325.912L132.39 307.85C138.148 318.059 143.386 326.697 155.95 326.697C167.992 326.697 175.587 321.986 175.587 303.662V179.048H212.236V304.18C212.236 342.14 189.985 359.419 157.52 359.419C128.202 359.419 111.184 344.234 102.544 325.909L102.546 325.912ZM232.143 321.985L261.984 304.707C269.84 317.536 280.05 326.96 298.112 326.96C313.299 326.96 322.982 319.367 322.982 308.895C322.982 296.33 313.034 291.879 296.28 284.551L287.119 280.62C260.677 269.367 243.138 255.229 243.138 225.385C243.138 197.896 264.08 176.952 296.805 176.952C320.105 176.952 336.859 185.069 348.901 206.273L320.364 224.6C314.079 213.344 307.276 208.894 296.804 208.894C286.07 208.894 279.263 215.701 279.263 224.6C279.263 235.595 286.07 240.048 301.776 246.855L310.938 250.781C342.092 264.134 359.632 277.746 359.632 308.373C359.632 341.361 333.715 359.423 298.897 359.423C264.865 359.423 242.874 343.192 232.141 321.986" fill="white"/>
</svg>
